<?xml version="1.0" encoding="utf-8"?>
<!-- Generator: Adobe Illustrator 25.0.0, SVG Export Plug-In . SVG Version: 6.00 Build 0)  -->
<svg version="1.1" id="Capa_1" xmlns="http://www.w3.org/2000/svg" xmlns:xlink="http://www.w3.org/1999/xlink" x="0px" y="0px"
	 viewBox="0 0 91 91" style="enable-background:new 0 0 91 91;" xml:space="preserve">
<style type="text/css">
	.st0{stroke:#000000;stroke-width:1.9191;stroke-miterlimit:10;}
	.st1{fill:#010101;}
</style>
<g id="PlayerPanel">
	<g id="Capa_2_1_">
		<g id="Capa_1-2">
			
				<image style="overflow:visible;enable-background:new    ;" width="500" height="500" xlink:href="../Panels/PlayerPanel.png"  transform="matrix(0.182 0 0 0.182 0 -6.728313e-06)">
			</image>
		</g>
	</g>
</g>
<g id="ExitIcon">
	<g id="Exit">
		<path d="M67.8,42.4L43,17.7c-1.5-1.5-3.9-1.5-5.3,0c-1.5,1.5-1.5,3.9,0,5.3l18.6,18H7.8c-2.1,0.4-3.6,2.2-3.8,4.3
			c0,2,1.6,3.6,3.6,3.7c0.1,0,0.1,0,0.2,0h48.5L37.9,67.5c-1.5,1.5-1.5,3.8,0,5.3s3.8,1.5,5.3,0L68,48c0.1-0.1,0.2-0.2,0.2-0.3
			l0.1-0.1l0.1-0.2c0-0.1,0.1-0.1,0.1-0.2l0.1-0.2c0-0.1,0-0.1,0.1-0.2c0-0.1,0.1-0.1,0.1-0.2c0-0.1,0-0.1,0.1-0.2
			c0-0.1,0.1-0.1,0.1-0.2c0-0.1,0-0.1,0-0.2s0-0.1,0-0.2s0-0.1,0-0.2c0-0.1,0-0.1,0-0.2c0-0.2,0-0.5,0-0.7c0-0.1,0-0.1,0-0.2
			c0-0.1,0-0.1,0-0.2s0-0.1,0-0.2s0-0.1,0-0.2l-0.1-0.2c0-0.1,0-0.1-0.1-0.2c0-0.1,0-0.1-0.1-0.2c0-0.1-0.1-0.1-0.1-0.2
			c0,0-0.1-0.1-0.1-0.2c0-0.1-0.1-0.1-0.1-0.2l-0.1-0.2l0,0.5c-0.1-0.1-0.3-0.3-0.4-0.4C67.8,42.5,67.8,42.5,67.8,42.4 M87,87V4H43
			v6h38v70H43v7H87z"/>
	</g>
</g>
<g id="OptionsIcon">
	<g id="Capa_2_3_">
		<g id="Capa_1-2_2_">
			<rect x="50" y="6.5" class="st0" width="25" height="78"/>
			<rect x="16" y="6.5" class="st0" width="25" height="78"/>
		</g>
	</g>
</g>
<g id="ResetIcon">
	<g id="Capa_2_2_">
		<g id="Capa_1-2_1_">
			<path class="st1" d="M11.8,72.5l8.5-5C32.4,82,54.1,84,68.6,71.8S85.1,38,72.9,23.5C60.8,9,39.2,7,24.6,19.2
				c-4.9,4.1-8.5,9.4-10.5,15.4l10.7,4.2c3.7-12,16.5-18.8,28.6-15.1s18.8,16.5,15.1,28.6S51.9,71.1,39.8,67.4
				c-3.6-1.1-6.8-3.1-9.5-5.7l8.6-5c1.1-0.6,1-1.5-0.2-2l-22.5-8.5c-0.9-0.4-2,0-2.3,0.9c-0.1,0.2-0.1,0.4-0.1,0.5l-3.7,23.8
				C10,72.6,10.7,73.1,11.8,72.5z"/>
		</g>
	</g>
</g>
</svg>
